<?xml version="1.0" standalone="no"?>
<!DOCTYPE svg PUBLIC "-//W3C//DTD SVG 20010904//EN"
 "http://www.w3.org/TR/2001/REC-SVG-20010904/DTD/svg10.dtd">
<svg version="1.0" xmlns="http://www.w3.org/2000/svg"
 width="512.000000pt" height="512.000000pt" viewBox="0 0 512.000000 512.000000"
 preserveAspectRatio="xMidYMid meet">
<metadata>
Created by potrace 1.14, written by Peter Selinger 2001-2017
</metadata>
<g transform="translate(0.000000,512.000000) scale(0.100000,-0.100000)"
fill="#000000" stroke="none">
<path d="M864 4758 c-141 -14 -302 -86 -405 -180 -136 -124 -220 -313 -222
-498 -2 -113 3 -148 39 -260 32 -102 37 -163 18 -226 -21 -70 -81 -144 -143
-175 -72 -37 -102 -64 -127 -115 -36 -73 -28 -142 23 -212 33 -45 96 -74 158
-75 134 -1 345 168 433 347 86 174 98 364 36 546 -14 41 -28 102 -31 135 -21
259 304 411 492 228 48 -46 71 -90 149 -283 15 -36 31 -74 36 -85 10 -21 470
-1134 525 -1270 18 -44 112 -271 209 -505 97 -234 202 -486 233 -560 30 -74
62 -151 70 -170 25 -59 31 -72 68 -165 87 -215 143 -318 233 -429 315 -391
837 -544 1312 -386 309 104 566 331 702 620 56 120 105 287 114 390 5 64 6
241 1 265 -3 11 -8 40 -12 65 -11 71 -33 151 -65 238 -46 127 -31 240 43 329
l27 31 50 -19 c90 -34 167 -20 230 42 38 38 49 66 56 133 8 99 -37 151 -219
250 -37 20 -82 45 -100 55 -18 10 -174 96 -347 191 -173 95 -335 184 -360 198
-25 13 -83 46 -130 72 -258 142 -277 150 -353 129 -57 -15 -92 -42 -122 -93
-31 -54 -38 -107 -20 -159 16 -46 18 -41 -56 -118 -130 -135 -224 -332 -266
-557 l-8 -43 -115 143 c-63 79 -117 145 -120 148 -3 3 -64 77 -135 165 -72 88
-138 169 -147 180 -9 11 -141 173 -294 360 -152 187 -302 370 -333 408 -31 37
-69 85 -86 106 -16 21 -98 121 -180 222 -83 101 -169 216 -193 255 -55 95
-176 207 -274 256 -130 64 -262 90 -394 76z"/>
</g>
</svg>
